<?xml version="1.0" encoding="UTF-8" standalone="no"?>
<!-- Created with Inkscape (http://www.inkscape.org/) -->

<svg
   xmlns:dc="http://purl.org/dc/elements/1.1/"
   xmlns:cc="http://creativecommons.org/ns#"
   xmlns:rdf="http://www.w3.org/1999/02/22-rdf-syntax-ns#"
   xmlns:svg="http://www.w3.org/2000/svg"
   xmlns="http://www.w3.org/2000/svg"
   xmlns:sodipodi="http://sodipodi.sourceforge.net/DTD/sodipodi-0.dtd"
   xmlns:inkscape="http://www.inkscape.org/namespaces/inkscape"
   width="43.5mm"
   height="47.5mm"
   viewBox="0 0 43.5 47.5"
   version="1.1"
   id="svg8"
   inkscape:version="0.92.4 (5da689c313, 2019-01-14)"
   sodipodi:docname="magicubeLogo.svg">
  <defs
     id="defs2">
    <clipPath
       id="clipPath26"
       clipPathUnits="userSpaceOnUse">
      <path
         style="clip-rule:evenodd"
         inkscape:connector-curvature="0"
         id="path24"
         d="M 8.871e-6,0 H 595.32001 V 841.92 H 8.871e-6 Z" />
    </clipPath>
    <clipPath
       id="clipPath34"
       clipPathUnits="userSpaceOnUse">
      <path
         style="clip-rule:evenodd"
         inkscape:connector-curvature="0"
         id="path32"
         d="M 8.871e-6,0 H 595.32001 V 841.92 H 8.871e-6 Z" />
    </clipPath>
    <clipPath
       id="clipPath42"
       clipPathUnits="userSpaceOnUse">
      <path
         style="clip-rule:evenodd"
         inkscape:connector-curvature="0"
         id="path40"
         d="M 8.871e-6,0 H 595.32001 V 841.92 H 8.871e-6 Z" />
    </clipPath>
    <clipPath
       id="clipPath50"
       clipPathUnits="userSpaceOnUse">
      <path
         style="clip-rule:evenodd"
         inkscape:connector-curvature="0"
         id="path48"
         d="M 8.871e-6,0 H 595.32001 V 841.92 H 8.871e-6 Z" />
    </clipPath>
    <clipPath
       id="clipPath58"
       clipPathUnits="userSpaceOnUse">
      <path
         style="clip-rule:evenodd"
         inkscape:connector-curvature="0"
         id="path56"
         d="M 8.871e-6,0 H 595.32001 V 841.92 H 8.871e-6 Z" />
    </clipPath>
    <clipPath
       id="clipPath66"
       clipPathUnits="userSpaceOnUse">
      <path
         style="clip-rule:evenodd"
         inkscape:connector-curvature="0"
         id="path64"
         d="M 8.871e-6,580.56 H 595.32001 V 724.92 H 8.871e-6 Z" />
    </clipPath>
    <clipPath
       id="clipPath76"
       clipPathUnits="userSpaceOnUse">
      <path
         inkscape:connector-curvature="0"
         id="path74"
         d="M 0,0 H 186.17 V 185.32 H 0 Z" />
    </clipPath>
    <clipPath
       id="clipPath86"
       clipPathUnits="userSpaceOnUse">
      <path
         inkscape:connector-curvature="0"
         id="path84"
         d="M 0,0 H 89.499 V 89.002 H 0 Z" />
    </clipPath>
    <clipPath
       id="clipPath116"
       clipPathUnits="userSpaceOnUse">
      <path
         style="clip-rule:evenodd"
         inkscape:connector-curvature="0"
         id="path114"
         d="M -1.11e-6,0.0022964 H 89.499999 V 89.002296 H -1.11e-6 Z" />
    </clipPath>
    <clipPath
       id="clipPath126"
       clipPathUnits="userSpaceOnUse">
      <path
         inkscape:connector-curvature="0"
         id="path124"
         d="M 0,0 H 81.165 V 85.979 H 0 Z" />
    </clipPath>
  </defs>
  <sodipodi:namedview
     id="base"
     pagecolor="#ffffff"
     bordercolor="#666666"
     borderopacity="0"
     inkscape:pageopacity="0"
     inkscape:pageshadow="2"
     inkscape:zoom="2.8"
     inkscape:cx="11.057084"
     inkscape:cy="105.38513"
     inkscape:document-units="mm"
     inkscape:current-layer="layer1"
     showgrid="false"
     inkscape:window-width="1920"
     inkscape:window-height="986"
     inkscape:window-x="-11"
     inkscape:window-y="-11"
     inkscape:window-maximized="1"
     showborder="true"
     inkscape:pagecheckerboard="false" />
  <metadata
     id="metadata5">
    <rdf:RDF>
      <cc:Work
         rdf:about="">
        <dc:format>image/svg+xml</dc:format>
        <dc:type
           rdf:resource="http://purl.org/dc/dcmitype/StillImage" />
        <dc:title></dc:title>
      </cc:Work>
    </rdf:RDF>
  </metadata>
  <g
     inkscape:label="Layer 1"
     inkscape:groupmode="layer"
     id="layer1"
     transform="translate(0,-249.5)">
    <g
       transform="matrix(0.35277777,0,0,-0.35277777,-33.642524,505.1254)"
       inkscape:label="magicubeLogo"
       id="g18">
      <g
         id="g20">
        <g
           clip-path="url(#clipPath26)"
           id="g22" />
      </g>
      <g
         id="g28">
        <g
           clip-path="url(#clipPath34)"
           id="g30" />
      </g>
      <g
         id="g36">
        <g
           clip-path="url(#clipPath42)"
           id="g38" />
      </g>
      <g
         id="g44">
        <g
           clip-path="url(#clipPath50)"
           id="g46" />
      </g>
      <g
         id="g52">
        <g
           clip-path="url(#clipPath58)"
           id="g54" />
      </g>
      <g
         id="g60">
        <g
           clip-path="url(#clipPath66)"
           id="g62">
          <g
             transform="matrix(1.884,0,0,1.879,94.974,589.65)"
             id="g68">
            <g
               transform="scale(0.38674,0.38851)"
               id="g70">
              <g
                 clip-path="url(#clipPath76)"
                 id="g72">
                <g
                   transform="matrix(2.5476,0,0,2.5358,1.125,1.6184)"
                   id="g78">
                  <g
                     transform="scale(0.80447,0.80897)"
                     id="g80">
                    <g
                       clip-path="url(#clipPath86)"
                       id="g82">
                      <path
                         inkscape:connector-curvature="0"
                         id="path88"
                         style="fill:#0070c0;fill-opacity:1;fill-rule:evenodd;stroke:none"
                         d="m 19.169,17.901 c 0.174,-0.089 0.225,-0.204 0.153,-0.342 C 18.969,16.876 18.417,15.87 17.666,14.54 16.915,13.209 16.363,12.203 16.009,11.521 15.683,10.89 15.22,9.9317 14.62,8.6443 14.019,7.357 13.557,6.4011 13.234,5.7766 13.141,5.5974 13.011,5.5512 12.843,5.638 L 9.7734,7.2272 C 9.6057,7.3139 9.5742,7.4585 9.679,7.6609 c 0.3023,0.5839 0.777,1.4487 1.425,2.5941 0.648,1.145 1.123,2.01 1.426,2.594 0.086,0.168 0.107,0.271 0.061,0.309 C 12.509,13.157 11.659,12.464 10.041,11.08 9.0923,10.266 8.1448,9.4557 7.1988,8.6478 7.0722,8.5447 6.9595,8.5041 6.8608,8.5258 6.8289,8.535 6.7118,8.592 6.5094,8.6967 6.2088,8.8524 6.0594,9.003 6.0615,9.1485 c 0.017,0.7976 0.0853,1.9355 0.205,3.4125 0.1209,1.565 0.1936,2.704 0.2182,3.417 0.0034,0.035 -0.0062,0.08 -0.0287,0.136 C 6.3886,16.083 6.325,16.009 6.2651,15.894 5.9718,15.327 5.5463,14.47 4.9887,13.322 4.431,12.173 4.0055,11.316 3.7122,10.749 3.6075,10.547 3.4741,10.488 3.3123,10.572 l -2.8967,1.499 c -0.11564,0.06 -0.17674,0.115 -0.1833,0.166 -0.00657,0.051 0.01409,0.123 0.06198,0.216 0.32621,0.63 0.84662,1.561 1.56122,2.793 0.7147,1.232 1.2351,2.163 1.5613,2.793 0.3472,0.671 0.9692,1.943 1.8661,3.817 0.2426,0.483 0.5862,1.211 1.0308,2.183 l 0.0676,0.152 c 0.0541,0.119 0.2054,0.114 0.454,-0.015 0.318,-0.165 0.8003,-0.402 1.4467,-0.711 0.6465,-0.308 1.1287,-0.545 1.4467,-0.71 0.0636,-0.033 0.0904,-0.201 0.0803,-0.503 l -0.3451,-6.87 c -0.0153,-0.469 0.0377,-0.735 0.1592,-0.797 0.0636,-0.033 0.3117,0.113 0.7439,0.439 1.213,0.912 3.024,2.294 5.435,4.148 0.215,0.174 0.38,0.232 0.496,0.172 0.168,-0.087 0.416,-0.227 0.745,-0.419 0.33,-0.193 0.581,-0.334 0.755,-0.423 0.144,-0.075 0.373,-0.175 0.685,-0.301 0.313,-0.125 0.542,-0.225 0.686,-0.3 z" />
                      <path
                         inkscape:connector-curvature="0"
                         id="path90"
                         style="fill:#0070c0;fill-opacity:1;fill-rule:evenodd;stroke:none"
                         d="m 20.574,11.467 c -0.549,0.11 -1.028,0.023 -1.436,-0.261 -0.409,-0.283 -0.668,-0.7 -0.777,-1.2489 -0.104,-0.5171 -0.014,-0.9965 0.27,-1.4382 0.284,-0.4417 0.681,-0.7134 1.192,-0.8154 0.542,-0.1083 1.021,-0.0197 1.437,0.2658 0.415,0.2856 0.678,0.7029 0.788,1.2519 0.108,0.5427 0.027,1.0258 -0.244,1.4478 -0.271,0.423 -0.681,0.689 -1.23,0.798 z m 0.091,2.999 c 1.002,-0.2 1.724,-0.709 2.164,-1.527 0.02,-0.037 0.039,-0.058 0.058,-0.061 0.057,-0.012 0.154,0.13 0.289,0.425 0.135,0.295 0.254,0.432 0.356,0.412 0.236,-0.047 0.673,-0.204 1.31,-0.471 0.607,-0.254 1.038,-0.453 1.295,-0.597 0.088,-0.057 0.126,-0.118 0.113,-0.182 C 26.245,12.44 26.222,12.375 26.181,12.27 25.746,11.155 25.4,9.9529 25.143,8.6632 25.045,8.1716 24.927,7.4349 24.791,6.4529 24.655,5.471 24.538,4.7375 24.442,4.2522 24.391,3.9969 24.252,3.8819 24.024,3.9073 23.221,4.0079 22.309,4.1601 21.287,4.364 21.166,4.3882 21.121,4.588 21.153,4.9634 21.185,5.3388 21.172,5.5354 21.116,5.5533 21.06,5.5379 20.982,5.497 20.883,5.4306 20.024,4.8519 19.186,4.6441 18.368,4.8072 17.123,5.0556 16.19,5.753 15.569,6.8994 14.98,7.9729 14.813,9.1481 15.068,10.425 c 0.294,1.475 0.93,2.583 1.908,3.324 1.016,0.766 2.246,1.005 3.689,0.717 z" />
                      <path
                         inkscape:connector-curvature="0"
                         id="path92"
                         style="fill:#c45911;fill-opacity:1;fill-rule:evenodd;stroke:none"
                         d="M 31.443,10.176 C 30.97,10.221 30.56,10.082 30.211,9.7587 29.863,9.4355 29.667,9.0374 29.621,8.5643 29.576,8.0912 29.698,7.6676 29.986,7.2934 c 0.288,-0.3741 0.662,-0.5832 1.122,-0.6272 0.473,-0.0452 0.883,0.0921 1.231,0.412 0.348,0.3199 0.544,0.7164 0.59,1.1895 0.045,0.4731 -0.073,0.8981 -0.354,1.2749 -0.282,0.3767 -0.659,0.5874 -1.132,0.6334 z m -0.813,2.785 c 0.979,-0.094 1.694,-0.515 2.146,-1.265 0.09,-0.152 0.154,-0.23 0.193,-0.234 0.058,-0.006 0.099,0.108 0.121,0.342 0.05,0.518 0.133,0.772 0.249,0.761 0.104,-0.01 0.66,-0.117 1.667,-0.322 1.007,-0.204 1.53,-0.314 1.567,-0.331 0.107,-0.049 0.154,-0.139 0.141,-0.269 C 36.672,11.196 36.593,10.53 36.479,9.6451 36.365,8.76 36.287,8.0938 36.244,7.6467 36.218,7.3809 36.184,6.9821 36.139,6.45 36.095,5.918 36.06,5.5191 36.035,5.2534 35.858,3.4063 35.343,2.1181 34.488,1.3889 33.606,0.64265 32.231,0.35876 30.365,0.53721 29.82,0.58926 29.087,0.7477 28.164,1.0125 c -1.178,0.335 -1.753,0.6516 -1.724,0.9497 0.011,0.1231 0.211,0.7449 0.6,1.8654 0.062,0.1771 0.142,0.261 0.24,0.2517 0.031,-0.0095 0.066,-0.0259 0.103,-0.0491 0.951,-0.5879 1.851,-0.9225 2.7,-1.0037 0.466,-0.0446 0.941,0.0278 1.423,0.2171 0.584,0.2254 0.897,0.5487 0.937,0.9699 l 0.062,0.6514 c -0.72,-0.559 -1.599,-0.7889 -2.636,-0.6898 -1.218,0.1165 -2.178,0.6497 -2.878,1.5996 -0.678,0.915 -0.958,1.9882 -0.84,3.2196 0.118,1.2377 0.579,2.2307 1.383,2.9777 0.839,0.776 1.872,1.106 3.096,0.989 z" />
                      <path
                         inkscape:connector-curvature="0"
                         id="path94"
                         style="fill:#c45911;fill-opacity:1;fill-rule:evenodd;stroke:none"
                         d="m 38.005,12.015 c 0.182,-0.007 0.46,-0.037 0.832,-0.09 0.373,-0.053 0.654,-0.084 0.842,-0.091 0.189,-0.007 0.473,-10e-4 0.851,0.017 0.379,0.018 0.662,0.024 0.851,0.017 0.156,-0.006 0.232,-0.074 0.227,-0.204 -10e-4,-0.026 -0.01,-0.088 -0.027,-0.185 C 41.39,10.216 41.263,8.7484 41.2,7.0764 41.183,6.6015 41.166,5.8936 41.15,4.9528 41.134,4.0119 41.117,3.3073 41.099,2.8389 41.094,2.7023 41.01,2.624 40.846,2.6041 40.624,2.5734 40.125,2.5727 39.351,2.6018 38.57,2.6312 38.07,2.6696 37.85,2.717 37.708,2.7484 37.622,2.794 37.592,2.8538 37.58,2.8803 37.577,2.9781 37.583,3.1473 c 0.017,0.4489 0.052,1.1235 0.106,2.0238 0.053,0.9003 0.088,1.5782 0.106,2.0336 0.069,1.8477 0.053,3.3203 -0.049,4.4193 -0.009,0.104 -0.013,0.173 -0.012,0.205 0.005,0.131 0.096,0.192 0.271,0.186 z m 1.874,4.073 c 0.507,-0.02 0.94,-0.189 1.3,-0.509 0.384,-0.34 0.567,-0.761 0.548,-1.261 -0.042,-1.132 -0.701,-1.674 -1.976,-1.626 -0.547,0.02 -0.994,0.18 -1.341,0.48 -0.378,0.327 -0.557,0.757 -0.537,1.291 0.019,0.507 0.236,0.916 0.652,1.226 0.382,0.285 0.833,0.418 1.354,0.399 z" />
                      <path
                         inkscape:connector-curvature="0"
                         id="path96"
                         style="fill:#c45911;fill-opacity:1;fill-rule:evenodd;stroke:none"
                         d="m 47.11,12.442 c 0.97,0.005 1.824,-0.199 2.562,-0.612 0.169,-0.09 0.254,-0.178 0.255,-0.262 0,-0.085 -0.096,-0.469 -0.287,-1.154 C 49.461,9.7555 49.344,9.3578 49.289,9.2208 49.234,9.0838 49.178,9.0152 49.119,9.0149 49.113,9.0149 48.915,9.066 48.528,9.1682 48.14,9.2704 47.825,9.3209 47.584,9.3197 47.005,9.3169 46.544,9.1404 46.2,8.7904 45.857,8.4404 45.687,7.9756 45.69,7.3962 45.693,6.7973 45.884,6.3278 46.263,5.9879 46.642,5.648 47.135,5.4796 47.74,5.4826 c 0.287,0.0014 0.609,0.0763 0.966,0.2245 0.357,0.1483 0.526,0.2224 0.507,0.2223 0.11,5e-4 0.256,-0.4122 0.435,-1.2381 C 49.802,3.9368 49.879,3.4359 49.881,3.1885 49.882,2.9411 49.479,2.7275 48.673,2.5477 48.049,2.4079 47.544,2.337 47.16,2.3351 45.728,2.328 44.544,2.8039 43.608,3.7628 c -0.936,0.9588 -1.407,2.1577 -1.414,3.5965 -0.007,1.4257 0.454,2.6276 1.383,3.6057 0.93,0.978 2.107,1.47 3.533,1.477 z" />
                      <path
                         inkscape:connector-curvature="0"
                         id="path98"
                         style="fill:#c45911;fill-opacity:1;fill-rule:evenodd;stroke:none"
                         d="m 51.116,11.954 c 0.299,0.021 0.754,0.05 1.365,0.086 0.611,0.036 1.066,0.064 1.365,0.085 0.201,0.014 0.307,-0.063 0.319,-0.232 0.003,-0.046 0.002,-0.114 -0.005,-0.206 -0.075,-0.893 -0.08,-1.7938 -0.017,-2.7031 0.079,-1.13 0.168,-1.9004 0.269,-2.3111 0.166,-0.7062 0.617,-1.0338 1.351,-0.9826 0.285,0.0199 0.587,0.1682 0.903,0.4448 0.317,0.2766 0.473,0.5517 0.467,0.8254 -0.004,0.2412 -0.111,1.8718 -0.322,4.8916 -0.015,0.215 -0.007,0.342 0.022,0.384 0.035,0.067 0.15,0.108 0.344,0.121 0.319,0.023 0.798,0.053 1.438,0.091 0.64,0.038 1.119,0.068 1.438,0.09 0.194,0.014 0.311,-0.027 0.351,-0.122 0.016,-0.051 0.028,-0.129 0.036,-0.232 0.033,-0.481 0.061,-1.204 0.082,-2.168 0.022,-0.9643 0.049,-1.6868 0.083,-2.1674 0.032,-0.4677 0.097,-1.1679 0.195,-2.1009 0.098,-0.933 0.163,-1.63 0.195,-2.0911 C 61.007,3.4812 60.934,3.3651 60.774,3.3083 60.532,3.2262 60.012,3.1573 59.213,3.1016 58.505,3.0522 58.01,3.0373 57.728,3.0568 57.603,3.0677 57.52,3.1402 57.478,3.2743 57.445,3.4678 57.412,3.6613 57.379,3.8548 57.325,4.1513 57.269,4.2975 57.211,4.2934 57.302,4.2997 56.989,4.056 56.273,3.5623 55.557,3.0686 54.894,2.8005 54.283,2.7579 52.562,2.6379 51.488,3.343 51.062,4.873 c -0.193,0.711 -0.338,1.7516 -0.433,3.122 -0.103,1.4808 -0.065,2.658 0.116,3.532 0.053,0.271 0.177,0.414 0.371,0.427 z" />
                      <path
                         inkscape:connector-curvature="0"
                         id="path100"
                         style="fill:#92d050;fill-opacity:1;fill-rule:evenodd;stroke:none"
                         d="M 66.388,11.073 C 65.849,10.984 65.453,10.73 65.202,10.31 64.951,9.8893 64.87,9.4061 64.959,8.8599 65.051,8.2945 65.277,7.863 65.636,7.5654 c 0.381,-0.3137 0.848,-0.4254 1.4,-0.3351 0.546,0.0893 0.949,0.3497 1.208,0.7813 0.245,0.4028 0.321,0.8836 0.23,1.4426 -0.088,0.5333 -0.325,0.9578 -0.713,1.2738 -0.388,0.316 -0.846,0.431 -1.373,0.345 z m -2.891,6.85 c 0.122,0.019 0.201,-0.077 0.235,-0.289 0.041,-0.25 0.079,-0.584 0.115,-1 0.044,-0.514 0.076,-0.852 0.096,-1.013 0.072,-0.642 0.198,-1.512 0.377,-2.611 0.033,-0.199 0.1,-0.29 0.203,-0.273 0.052,0.008 0.096,0.042 0.132,0.101 0.478,0.711 1.185,1.143 2.123,1.297 1.407,0.23 2.584,-0.069 3.531,-0.898 C 71.187,12.47 71.743,11.364 71.98,9.9185 72.2,8.5692 71.999,7.3786 71.376,6.3466 70.711,5.2484 69.717,4.5911 68.394,4.3748 67.43,4.2172 66.607,4.3664 65.926,4.8224 65.874,4.8536 65.833,4.8665 65.801,4.8613 65.736,4.8508 65.696,4.7222 65.681,4.4755 65.665,4.2289 65.621,4.0864 65.548,4.0481 65.444,3.9981 64.531,3.8324 62.809,3.5509 62.404,3.4848 62.189,3.5256 62.165,3.6733 62.162,3.6926 62.161,3.7419 62.161,3.8211 62.122,4.8637 61.869,6.821 61.399,9.693 c -0.448,2.744 -0.935,5.115 -1.46,7.114 l -0.027,0.104 c -0.016,0.103 0.074,0.177 0.271,0.222 0.14,0.03 0.691,0.169 1.653,0.419 0.677,0.177 1.231,0.3 1.661,0.371 z" />
                      <path
                         inkscape:connector-curvature="0"
                         id="path102"
                         style="fill:#92d050;fill-opacity:1;fill-rule:evenodd;stroke:none"
                         d="m 75.513,13.852 c -0.392,-0.121 -0.664,-0.386 -0.817,-0.794 -0.142,-0.378 -0.15,-0.772 -0.023,-1.183 0.052,-0.168 0.165,-0.225 0.34,-0.171 0.46,0.142 1.153,0.435 2.079,0.879 0.195,0.094 0.283,0.176 0.262,0.244 -0.12,0.386 -0.362,0.682 -0.726,0.89 -0.364,0.208 -0.736,0.253 -1.115,0.135 z m -0.375,2.501 c 1.194,0.37 2.342,0.248 3.445,-0.365 1.103,-0.613 1.84,-1.519 2.212,-2.719 C 80.989,12.64 80.898,12.22 80.52,12.008 80.456,11.974 79.833,11.707 78.653,11.205 77.944,10.897 76.879,10.462 75.459,9.8997 75.671,9.5224 76.03,9.2964 76.537,9.2216 76.952,9.159 77.389,9.199 77.85,9.3414 c 0.553,0.1713 1.064,0.4929 1.531,0.9646 0.19,0.222 0.38,0.445 0.57,0.667 0.15,-0.022 0.468,-0.271 0.953,-0.748 C 81.388,9.7483 81.655,9.4321 81.703,9.2766 81.717,9.2331 81.692,9.1471 81.63,9.0188 81.123,7.9692 80.07,7.1971 78.472,6.7024 76.992,6.2443 75.664,6.307 74.488,6.8905 c -1.204,0.5882 -2.033,1.6162 -2.487,3.084 -0.443,1.4305 -0.389,2.7315 0.161,3.9035 0.566,1.211 1.558,2.036 2.976,2.475 z" />
                      <path
                         inkscape:connector-curvature="0"
                         id="path104"
                         style="fill:#d9680d;fill-opacity:1;fill-rule:evenodd;stroke:none"
                         d="M 10.5,71.726 42.246,89.002 73.5,74.377 42.737,57.002 Z" />
                      <path
                         inkscape:connector-curvature="0"
                         id="path106"
                         style="fill:#0070c0;fill-opacity:1;fill-rule:evenodd;stroke:none"
                         d="M 11.297,71.002 11,31.389 44,17.002 v 39.219 z" />
                      <path
                         inkscape:connector-curvature="0"
                         id="path108"
                         style="fill:#92d050;fill-opacity:1;fill-rule:evenodd;stroke:none"
                         d="M 44.131,56.833 74,73.502 V 34.563 L 44,17.502 Z" />
                      <g
                         id="g110">
                        <g
                           clip-path="url(#clipPath116)"
                           id="g112">
                          <g
                             transform="matrix(0.90972,0,0,0.96528,10,16.502)"
                             id="g118">
                            <g
                               transform="scale(0.88708,0.83741)"
                               id="g120">
                              <g
                                 clip-path="url(#clipPath126)"
                                 id="g122">
                                <path
                                   inkscape:connector-curvature="0"
                                   id="path128"
                                   style="fill:none;stroke:#000000;stroke-width:2.16000009;stroke-linecap:round;stroke-linejoin:round;stroke-miterlimit:10;stroke-dasharray:none;stroke-opacity:1"
                                   d="M 2.205,68.398 40.756,50.892" />
                                <path
                                   inkscape:connector-curvature="0"
                                   id="path130"
                                   style="fill:none;stroke:#000000;stroke-width:2.16000009;stroke-linecap:round;stroke-linejoin:round;stroke-miterlimit:10;stroke-dasharray:none;stroke-opacity:1"
                                   d="M 41.607,50.892 V 2.7035" />
                                <path
                                   inkscape:connector-curvature="0"
                                   id="path132"
                                   style="fill:none;stroke:#000000;stroke-width:2.16000009;stroke-linecap:round;stroke-linejoin:round;stroke-miterlimit:10;stroke-dasharray:none;stroke-opacity:1"
                                   d="M 78.174,70.735 41.607,50.326" />
                                <path
                                   inkscape:connector-curvature="0"
                                   id="path134"
                                   style="fill:none;stroke:#000000;stroke-width:2.16000009;stroke-linecap:round;stroke-linejoin:round;stroke-miterlimit:10;stroke-dasharray:none;stroke-opacity:1"
                                   d="M 15.811,75.837 54.362,58.332" />
                                <path
                                   inkscape:connector-curvature="0"
                                   id="path136"
                                   style="fill:none;stroke:#000000;stroke-width:2.16000009;stroke-linecap:round;stroke-linejoin:round;stroke-miterlimit:10;stroke-dasharray:none;stroke-opacity:1"
                                   d="M 28.567,82.924 67.118,65.419" />
                                <path
                                   inkscape:connector-curvature="0"
                                   id="path138"
                                   style="fill:none;stroke:#000000;stroke-width:2.16000009;stroke-linecap:round;stroke-linejoin:round;stroke-miterlimit:10;stroke-dasharray:none;stroke-opacity:1"
                                   d="M 2.7719,51.39 41.323,33.885" />
                                <path
                                   inkscape:connector-curvature="0"
                                   id="path140"
                                   style="fill:none;stroke:#000000;stroke-width:2.16000009;stroke-linecap:round;stroke-linejoin:round;stroke-miterlimit:10;stroke-dasharray:none;stroke-opacity:1"
                                   d="M 2.7719,35.302 41.323,17.797" />
                                <path
                                   inkscape:connector-curvature="0"
                                   id="path142"
                                   style="fill:none;stroke:#000000;stroke-width:2.16000009;stroke-linecap:round;stroke-linejoin:round;stroke-miterlimit:10;stroke-dasharray:none;stroke-opacity:1"
                                   d="M 78.457,54.294 41.89,33.885" />
                                <path
                                   inkscape:connector-curvature="0"
                                   id="path144"
                                   style="fill:none;stroke:#000000;stroke-width:2.16000009;stroke-linecap:round;stroke-linejoin:round;stroke-miterlimit:10;stroke-dasharray:none;stroke-opacity:1"
                                   d="M 78.457,38.42 41.89,18.011" />
                                <path
                                   inkscape:connector-curvature="0"
                                   id="path146"
                                   style="fill:none;stroke:#000000;stroke-width:2.16000009;stroke-linecap:round;stroke-linejoin:round;stroke-miterlimit:10;stroke-dasharray:none;stroke-opacity:1"
                                   d="M 64.284,77.538 27.717,57.129" />
                                <path
                                   inkscape:connector-curvature="0"
                                   id="path148"
                                   style="fill:none;stroke:#000000;stroke-width:2.16000009;stroke-linecap:round;stroke-linejoin:round;stroke-miterlimit:10;stroke-dasharray:none;stroke-opacity:1"
                                   d="M 51.244,83.774 14.677,63.365" />
                                <path
                                   inkscape:connector-curvature="0"
                                   id="path150"
                                   style="fill:none;stroke:#000000;stroke-width:2.16000009;stroke-linecap:round;stroke-linejoin:round;stroke-miterlimit:10;stroke-dasharray:none;stroke-opacity:1"
                                   d="M 54.929,57.696 V 9.5067" />
                                <path
                                   inkscape:connector-curvature="0"
                                   id="path152"
                                   style="fill:none;stroke:#000000;stroke-width:2.16000009;stroke-linecap:round;stroke-linejoin:round;stroke-miterlimit:10;stroke-dasharray:none;stroke-opacity:1"
                                   d="M 67.402,65.066 V 16.877" />
                                <path
                                   inkscape:connector-curvature="0"
                                   id="path154"
                                   style="fill:none;stroke:#000000;stroke-width:2.16000009;stroke-linecap:round;stroke-linejoin:round;stroke-miterlimit:10;stroke-dasharray:none;stroke-opacity:1"
                                   d="M 27.717,56.562 V 8.3728" />
                                <path
                                   inkscape:connector-curvature="0"
                                   id="path156"
                                   style="fill:none;stroke:#000000;stroke-width:2.16000009;stroke-linecap:round;stroke-linejoin:round;stroke-miterlimit:10;stroke-dasharray:none;stroke-opacity:1"
                                   d="M 14.111,62.515 V 14.326" />
                              </g>
                            </g>
                          </g>
                        </g>
                      </g>
                    </g>
                  </g>
                </g>
              </g>
            </g>
          </g>
        </g>
      </g>
    </g>
  </g>
</svg>
